<?xml version="1.0" encoding="utf-8"?>
<!-- Generator: Adobe Illustrator 15.0.0, SVG Export Plug-In . SVG Version: 6.00 Build 0)  -->
<!DOCTYPE svg PUBLIC "-//W3C//DTD SVG 1.1//EN" "http://www.w3.org/Graphics/SVG/1.1/DTD/svg11.dtd">
<svg version="1.1" id="Layer_1" xmlns="http://www.w3.org/2000/svg" xmlns:xlink="http://www.w3.org/1999/xlink" x="0px" y="0px"
	 width="280.883px" height="156.803px" viewBox="147.542 31.076 280.883 156.803"
	 enable-background="new 147.542 31.076 280.883 156.803" xml:space="preserve">
<g>
	<g>
		<polyline fill="none" stroke="#231F20" stroke-width="3" stroke-miterlimit="10" points="153.501,177.525 153.501,158.537 
			153.501,81.342 153.365,36.898 		"/>
		<circle fill="#231F20" cx="153.365" cy="181.915" r="5.823"/>
		<circle fill="#231F20" cx="153.365" cy="36.899" r="5.823"/>
		<polyline fill="none" stroke="#231F20" stroke-width="3" stroke-miterlimit="10" points="275.657,177.667 275.657,158.68 
			275.657,81.483 275.521,37.04 		"/>
		<circle fill="#231F20" cx="275.521" cy="182.056" r="5.823"/>
		<circle fill="#231F20" cx="275.521" cy="37.041" r="5.823"/>
		<polyline fill="none" stroke="#231F20" stroke-width="3" stroke-miterlimit="10" points="260.392,127.359 248.164,115.131 
			198.454,65.422 169.739,36.9 		"/>
		<circle fill="#231F20" cx="262.464" cy="129.248" r="5.822"/>
		<circle fill="#231F20" cx="169.739" cy="36.9" r="5.823"/>
		<polyline fill="none" stroke="#231F20" stroke-width="3" stroke-miterlimit="10" points="167.255,60.971 195.052,88.573 
			243.167,136.688 255.001,148.523 255.001,177.667 		"/>
		<circle fill="#231F20" cx="255.507" cy="182.056" r="5.822"/>
		<line fill="none" stroke="#231F20" stroke-width="3" stroke-miterlimit="10" x1="255.001" y1="37.04" x2="255.001" y2="100.379"/>
		
			<line fill="none" stroke="#231F20" stroke-width="3" stroke-miterlimit="10" x1="173.514" y1="91.318" x2="173.514" y2="180.919"/>
		<circle fill="#231F20" cx="255.665" cy="103.194" r="5.821"/>
		<circle fill="#231F20" cx="255.665" cy="36.966" r="5.821"/>
		<circle fill="#231F20" cx="173.515" cy="182.052" r="5.822"/>
		<circle fill="#231F20" cx="173.515" cy="91.894" r="5.822"/>
		<circle fill="#231F20" cx="169.523" cy="63.239" r="5.822"/>
	</g>
	<g>
		
			<line fill="none" stroke="#231F20" stroke-width="3" stroke-miterlimit="10" x1="320.739" y1="109.133" x2="361.858" y2="109.133"/>
		<circle fill="#231F20" cx="366.304" cy="109.134" r="5.823"/>
		<circle fill="#231F20" cx="314.917" cy="109.134" r="5.821"/>
		<circle fill="#231F20" cx="422.092" cy="181.476" r="5.822"/>
		<circle fill="#231F20" cx="422.602" cy="37.48" r="5.823"/>
		<polyline fill="none" stroke="#231F20" stroke-width="3" stroke-miterlimit="10" points="422.092,181.477 319.915,181.477 
			300.382,161.941 300.382,56.611 319.636,37.357 422.746,37.357 		"/>
		<polyline fill="none" stroke="#231F20" stroke-width="3" stroke-miterlimit="10" points="402.882,161.376 337.315,161.376 
			320.202,144.387 320.202,133.062 		"/>
		<polyline fill="none" stroke="#231F20" stroke-width="3" stroke-miterlimit="10" points="402.74,57.098 337.172,57.098 
			320.061,74.087 320.061,85.413 		"/>
		<circle fill="#231F20" cx="403.865" cy="57.098" r="5.822"/>
		<circle fill="#231F20" cx="402.881" cy="161.377" r="5.823"/>
		<circle fill="#231F20" cx="320.74" cy="130.948" r="5.822"/>
		<circle fill="#231F20" cx="320.74" cy="87.391" r="5.822"/>
	</g>
</g>
</svg>
